<svg width="608" height="75" viewBox="0 0 608 75" fill="none" xmlns="http://www.w3.org/2000/svg">
<path d="M87.6233 52.3614C85.3172 52.3614 83.3037 52.0344 81.5828 51.3805C79.8618 50.7265 78.5194 49.8144 77.5557 48.6441C76.6264 47.4739 76.1617 46.1487 76.1617 44.6687V44.1524C76.1617 43.9803 76.2133 43.8426 76.3166 43.7394C76.4543 43.6017 76.6092 43.5329 76.7813 43.5329H82.5121C82.6842 43.5329 82.8219 43.6017 82.9251 43.7394C83.0628 43.8426 83.1316 43.9803 83.1316 44.1524V44.204C83.1316 44.9613 83.5447 45.6152 84.3707 46.1659C85.2312 46.6822 86.2982 46.9404 87.5717 46.9404C88.742 46.9404 89.6885 46.7166 90.4113 46.2692C91.1341 45.7873 91.4955 45.2022 91.4955 44.5138C91.4955 43.8943 91.1857 43.4296 90.5662 43.1198C89.9466 42.81 88.9313 42.4831 87.5201 42.1389C85.9024 41.7258 84.6289 41.33 83.6995 40.9514C81.4967 40.1942 79.7413 39.2649 78.4334 38.1634C77.1255 37.062 76.4715 35.4787 76.4715 33.4136C76.4715 30.8666 77.4524 28.853 79.4143 27.373C81.4107 25.8585 84.0437 25.1013 87.3136 25.1013C89.5164 25.1013 91.4439 25.4627 93.096 26.1855C94.7481 26.8739 96.0216 27.8549 96.9165 29.1284C97.8459 30.4019 98.3105 31.8475 98.3105 33.4652C98.3105 33.6373 98.2417 33.7922 98.104 33.9299C98.0008 34.0331 97.8631 34.0848 97.691 34.0848H92.1667C91.9946 34.0848 91.8397 34.0331 91.702 33.9299C91.5988 33.7922 91.5471 33.6373 91.5471 33.4652C91.5471 32.708 91.1513 32.0712 90.3597 31.5549C89.6025 31.0387 88.5871 30.7805 87.3136 30.7805C86.1777 30.7805 85.2484 30.987 84.5256 31.4001C83.8028 31.8131 83.4414 32.381 83.4414 33.1038C83.4414 33.7922 83.7856 34.3085 84.474 34.6527C85.1968 34.9969 86.3842 35.3583 88.0364 35.7369C88.415 35.8401 88.8452 35.9606 89.3271 36.0983C89.809 36.2015 90.3253 36.3392 90.876 36.5113C93.3197 37.2341 95.2472 38.1634 96.6584 39.2993C98.0696 40.4351 98.7752 42.0872 98.7752 44.2557C98.7752 46.8027 97.7598 48.799 95.7291 50.2446C93.7328 51.6558 91.0309 52.3614 87.6233 52.3614ZM117.619 30.6772C117.619 30.8493 117.55 31.0042 117.412 31.1419C117.309 31.2452 117.171 31.2968 116.999 31.2968H112.043C111.871 31.2968 111.784 31.3828 111.784 31.5549V42.5003C111.784 43.6361 112.008 44.4794 112.456 45.0301C112.938 45.5808 113.695 45.8562 114.727 45.8562H116.431C116.603 45.8562 116.741 45.925 116.844 46.0627C116.982 46.1659 117.051 46.3036 117.051 46.4757V51.3805C117.051 51.7591 116.844 51.9828 116.431 52.0516C114.985 52.1205 113.953 52.1549 113.333 52.1549C110.477 52.1549 108.343 51.6902 106.931 50.7609C105.52 49.7972 104.797 48.0074 104.763 45.3915V31.5549C104.763 31.3828 104.677 31.2968 104.505 31.2968H101.562C101.39 31.2968 101.235 31.2452 101.097 31.1419C100.994 31.0042 100.942 30.8493 100.942 30.6772V26.0823C100.942 25.9102 100.994 25.7725 101.097 25.6692C101.235 25.5316 101.39 25.4627 101.562 25.4627H104.505C104.677 25.4627 104.763 25.3767 104.763 25.2046V19.0607C104.763 18.8886 104.815 18.751 104.918 18.6477C105.056 18.51 105.21 18.4412 105.382 18.4412H111.165C111.337 18.4412 111.475 18.51 111.578 18.6477C111.716 18.751 111.784 18.8886 111.784 19.0607V25.2046C111.784 25.3767 111.871 25.4627 112.043 25.4627H116.999C117.171 25.4627 117.309 25.5316 117.412 25.6692C117.55 25.7725 117.619 25.9102 117.619 26.0823V30.6772ZM132.069 25.0497C134.306 25.0497 136.302 25.4455 138.058 26.2372C139.813 26.9944 141.172 28.0442 142.136 29.3865C143.134 30.7289 143.633 32.2261 143.633 33.8782V51.3805C143.633 51.5525 143.565 51.7074 143.427 51.8451C143.324 51.9484 143.186 52 143.014 52H136.973C136.801 52 136.646 51.9484 136.509 51.8451C136.405 51.7074 136.354 51.5525 136.354 51.3805V49.6767C136.354 49.5734 136.319 49.5046 136.251 49.4702C136.182 49.4358 136.113 49.4702 136.044 49.5734C134.598 51.4665 132.275 52.413 129.074 52.413C126.389 52.413 124.221 51.7591 122.569 50.4511C120.917 49.1432 120.091 47.2157 120.091 44.6687C120.091 42.0184 121.02 39.9705 122.879 38.5248C124.737 37.0448 127.388 36.3048 130.829 36.3048H136.096C136.268 36.3048 136.354 36.2188 136.354 36.0467V34.9108C136.354 33.775 136.01 32.8973 135.321 32.2777C134.633 31.6238 133.6 31.2968 132.223 31.2968C131.156 31.2968 130.262 31.4861 129.539 31.8647C128.85 32.2433 128.403 32.7768 128.196 33.4652C128.093 33.8438 127.869 34.0159 127.525 33.9815L121.278 33.1554C120.865 33.0866 120.676 32.9317 120.71 32.6908C120.848 31.2452 121.416 29.9372 122.414 28.767C123.447 27.5967 124.789 26.6846 126.441 26.0306C128.128 25.3767 130.003 25.0497 132.069 25.0497ZM131.036 46.992C132.516 46.992 133.772 46.5962 134.805 45.8045C135.838 45.0129 136.354 43.9975 136.354 42.7584V40.8998C136.354 40.7277 136.268 40.6416 136.096 40.6416H132.378C130.829 40.6416 129.608 40.9342 128.713 41.5193C127.852 42.1045 127.422 42.9305 127.422 43.9975C127.422 44.9268 127.749 45.6669 128.403 46.2176C129.057 46.7338 129.935 46.992 131.036 46.992ZM159.913 52.413C157.16 52.413 154.767 51.7246 152.737 50.3479C150.74 48.9711 149.312 47.078 148.452 44.6687C147.866 42.9477 147.574 40.917 147.574 38.5765C147.574 36.2704 147.866 34.2741 148.452 32.5875C149.278 30.247 150.706 28.4056 152.737 27.0632C154.767 25.7209 157.16 25.0497 159.913 25.0497C162.667 25.0497 165.076 25.7381 167.141 27.1149C169.241 28.4916 170.635 30.2298 171.323 32.3294C171.598 33.1554 171.736 33.775 171.736 34.188V34.2913C171.736 34.601 171.564 34.7904 171.22 34.8592L165.283 35.7369H165.179C164.87 35.7369 164.663 35.5648 164.56 35.2206L164.405 34.3945C164.164 33.4996 163.63 32.7596 162.804 32.1745C161.978 31.5894 160.997 31.2968 159.861 31.2968C158.76 31.2968 157.831 31.5722 157.074 32.1229C156.316 32.6736 155.783 33.4308 155.473 34.3945C155.094 35.4271 154.905 36.8383 154.905 38.6281C154.905 40.4179 155.077 41.8291 155.421 42.8617C155.731 43.8943 156.265 44.7031 157.022 45.2882C157.814 45.8734 158.76 46.1659 159.861 46.1659C160.928 46.1659 161.858 45.8906 162.649 45.3399C163.476 44.7547 164.043 43.9631 164.353 42.9649C164.388 42.8961 164.405 42.7928 164.405 42.6552C164.439 42.6207 164.456 42.5691 164.456 42.5003C164.491 42.0872 164.732 41.9151 165.179 41.984L171.117 42.9133C171.461 42.9821 171.633 43.1715 171.633 43.4812C171.633 43.7566 171.53 44.2729 171.323 45.0301C170.6 47.3362 169.189 49.1432 167.09 50.4511C165.024 51.7591 162.632 52.413 159.913 52.413ZM176.079 52C175.907 52 175.752 51.9484 175.614 51.8451C175.511 51.7074 175.459 51.5525 175.459 51.3805V16.4793C175.459 16.3072 175.511 16.1695 175.614 16.0663C175.752 15.9286 175.907 15.8597 176.079 15.8597H182.119C182.291 15.8597 182.429 15.9286 182.532 16.0663C182.67 16.1695 182.739 16.3072 182.739 16.4793V33.8782C182.739 33.9815 182.773 34.0503 182.842 34.0848C182.911 34.0848 182.98 34.0503 183.049 33.9815L190.07 25.8241C190.311 25.5832 190.569 25.4627 190.845 25.4627H197.711C198.055 25.4627 198.227 25.5832 198.227 25.8241C198.227 25.9274 198.176 26.0651 198.073 26.2372L191.516 34.5494C191.447 34.6871 191.43 34.8076 191.464 34.9108L199.157 51.2772C199.226 51.4149 199.26 51.5181 199.26 51.587C199.26 51.8623 199.071 52 198.692 52H192.342C191.998 52 191.757 51.8451 191.619 51.5353L186.508 39.4542C186.473 39.3853 186.404 39.3509 186.301 39.3509C186.232 39.3165 186.181 39.3337 186.146 39.4025L182.842 43.5329C182.773 43.6705 182.739 43.7738 182.739 43.8426V51.3805C182.739 51.5525 182.67 51.7074 182.532 51.8451C182.429 51.9484 182.291 52 182.119 52H176.079ZM202.058 52C201.714 52 201.542 51.8279 201.542 51.4837V49.0055C201.542 48.7646 201.611 48.5581 201.749 48.386L216.411 29.4898C216.48 29.4209 216.497 29.3693 216.463 29.3349C216.429 29.2661 216.377 29.2316 216.308 29.2316H202.265C201.921 29.2316 201.749 29.0595 201.749 28.7153V26.392C201.749 26.0479 201.921 25.8758 202.265 25.8758H220.387C220.731 25.8758 220.903 26.0479 220.903 26.392V28.8702C220.903 29.1112 220.834 29.3177 220.697 29.4898L205.879 48.386C205.81 48.4548 205.793 48.5237 205.827 48.5925C205.862 48.6269 205.913 48.6441 205.982 48.6441H220.387C220.731 48.6441 220.903 48.8162 220.903 49.1604V51.4837C220.903 51.8279 220.731 52 220.387 52H202.058ZM246.424 34.5494C246.562 35.5132 246.63 36.7178 246.63 38.1634V39.8156C246.63 40.1598 246.458 40.3319 246.114 40.3319H229.438C229.3 40.3319 229.231 40.4007 229.231 40.5384C229.3 42.4314 229.404 43.6533 229.541 44.204C229.92 45.7529 230.729 46.9748 231.968 47.8697C233.207 48.7646 234.79 49.212 236.718 49.212C238.163 49.212 239.437 48.8851 240.538 48.2311C241.64 47.5771 242.5 46.6478 243.12 45.4431C243.326 45.1334 243.567 45.0645 243.842 45.2366L245.856 46.4241C246.131 46.5962 246.2 46.8371 246.062 47.1469C245.202 48.799 243.911 50.1069 242.19 51.0707C240.469 52 238.49 52.4647 236.253 52.4647C233.809 52.4302 231.761 51.8451 230.109 50.7093C228.457 49.5734 227.27 47.9902 226.547 45.9594C225.927 44.3073 225.617 41.9324 225.617 38.8346C225.617 37.389 225.635 36.2188 225.669 35.3239C225.738 34.3945 225.876 33.5685 226.082 32.8457C226.667 30.6084 227.837 28.8186 229.593 27.4763C231.383 26.1339 233.534 25.4627 236.046 25.4627C239.179 25.4627 241.588 26.2544 243.274 27.8377C244.961 29.4209 246.011 31.6582 246.424 34.5494ZM236.046 28.6637C234.36 28.6637 232.949 29.1112 231.813 30.0061C230.711 30.8666 229.989 32.0368 229.644 33.5168C229.438 34.2396 229.3 35.4099 229.231 37.0276C229.231 37.1653 229.3 37.2341 229.438 37.2341H242.81C242.948 37.2341 243.016 37.1653 243.016 37.0276C242.948 35.4787 242.844 34.3773 242.707 33.7234C242.328 32.1745 241.554 30.9526 240.383 30.0577C239.247 29.1284 237.802 28.6637 236.046 28.6637ZM263.937 25.6176C265.072 25.6176 266.053 25.8413 266.879 26.2888C267.155 26.4265 267.258 26.6502 267.189 26.96L266.621 29.4898C266.518 29.834 266.294 29.9372 265.95 29.7996C265.365 29.5586 264.694 29.4382 263.937 29.4382L263.265 29.4898C261.476 29.5586 259.996 30.2298 258.825 31.5033C257.655 32.7424 257.07 34.3257 257.07 36.2532V51.4837C257.07 51.8279 256.898 52 256.554 52H253.921C253.576 52 253.404 51.8279 253.404 51.4837V26.392C253.404 26.0479 253.576 25.8758 253.921 25.8758H256.554C256.898 25.8758 257.07 26.0479 257.07 26.392V29.5414C257.07 29.6447 257.087 29.7135 257.122 29.7479C257.19 29.7479 257.242 29.7135 257.276 29.6447C257.999 28.3712 258.911 27.3902 260.013 26.7018C261.149 25.979 262.457 25.6176 263.937 25.6176ZM281.406 52.413C278.928 52.413 276.794 51.7763 275.004 50.5028C273.215 49.2292 271.976 47.4739 271.287 45.2366C270.805 43.6533 270.564 41.5365 270.564 38.8863C270.564 36.236 270.805 34.1364 271.287 32.5875C271.941 30.3847 273.163 28.6465 274.953 27.373C276.743 26.0995 278.911 25.4627 281.458 25.4627C283.902 25.4627 286.001 26.0995 287.757 27.373C289.547 28.6465 290.769 30.3675 291.422 32.5359C291.904 34.0159 292.145 36.1327 292.145 38.8863C292.145 41.6742 291.904 43.791 291.422 45.2366C290.769 47.4739 289.547 49.2292 287.757 50.5028C286.001 51.7763 283.885 52.413 281.406 52.413ZM281.406 49.212C283.059 49.212 284.47 48.7646 285.64 47.8697C286.81 46.9404 287.602 45.7013 288.015 44.1524C288.325 42.9133 288.48 41.1751 288.48 38.9379C288.48 36.6662 288.342 34.928 288.067 33.7234C287.654 32.1745 286.845 30.9526 285.64 30.0577C284.47 29.1284 283.041 28.6637 281.355 28.6637C279.668 28.6637 278.24 29.1284 277.07 30.0577C275.899 30.9526 275.108 32.1745 274.695 33.7234C274.419 34.928 274.282 36.6662 274.282 38.9379C274.282 41.2096 274.419 42.9477 274.695 44.1524C275.073 45.7013 275.848 46.9404 277.018 47.8697C278.223 48.7646 279.686 49.212 281.406 49.212ZM296.895 52C296.516 52 296.378 51.8107 296.482 51.4321L307.892 16.2728C307.995 15.9974 308.202 15.8597 308.511 15.8597H311.093C311.471 15.8597 311.609 16.0491 311.506 16.4277L300.096 51.587C299.993 51.8623 299.786 52 299.476 52H296.895ZM325.496 52.413C323.018 52.413 320.884 51.7763 319.094 50.5028C317.339 49.1948 316.134 47.4394 315.48 45.2366C315.033 43.7222 314.809 41.5882 314.809 38.8346C314.809 36.3564 315.033 34.2569 315.48 32.5359C316.1 30.4019 317.305 28.6981 319.094 27.4246C320.884 26.1167 323.018 25.4627 325.496 25.4627C328.009 25.4627 330.177 26.0995 332.002 27.373C333.86 28.6465 335.065 30.2298 335.616 32.1229C335.788 32.7424 335.891 33.2587 335.925 33.6717V33.775C335.925 34.0159 335.771 34.1708 335.461 34.2396L332.879 34.601H332.776C332.535 34.601 332.38 34.4462 332.311 34.1364L332.157 33.362C331.847 32.054 331.09 30.9526 329.885 30.0577C328.68 29.1284 327.217 28.6637 325.496 28.6637C323.775 28.6637 322.33 29.1284 321.16 30.0577C320.024 30.9526 319.284 32.1573 318.94 33.6717C318.63 34.9797 318.475 36.7178 318.475 38.8863C318.475 41.1579 318.63 42.9133 318.94 44.1524C319.284 45.7013 320.024 46.9404 321.16 47.8697C322.33 48.7646 323.775 49.212 325.496 49.212C327.183 49.212 328.629 48.7818 329.833 47.9213C331.072 47.0264 331.847 45.8906 332.157 44.5138V44.3073L332.208 44.1008C332.243 43.7566 332.449 43.6189 332.828 43.6877L335.358 44.1008C335.702 44.1696 335.857 44.3589 335.822 44.6687L335.616 45.7013C335.099 47.6976 333.912 49.3153 332.053 50.5544C330.195 51.7935 328.009 52.413 325.496 52.413ZM351.755 52.413C349.277 52.413 347.143 51.7763 345.353 50.5028C343.563 49.2292 342.324 47.4739 341.636 45.2366C341.154 43.6533 340.913 41.5365 340.913 38.8863C340.913 36.236 341.154 34.1364 341.636 32.5875C342.29 30.3847 343.512 28.6465 345.301 27.373C347.091 26.0995 349.26 25.4627 351.807 25.4627C354.25 25.4627 356.35 26.0995 358.105 27.373C359.895 28.6465 361.117 30.3675 361.771 32.5359C362.253 34.0159 362.494 36.1327 362.494 38.8863C362.494 41.6742 362.253 43.791 361.771 45.2366C361.117 47.4739 359.895 49.2292 358.105 50.5028C356.35 51.7763 354.233 52.413 351.755 52.413ZM351.755 49.212C353.407 49.212 354.818 48.7646 355.989 47.8697C357.159 46.9404 357.95 45.7013 358.363 44.1524C358.673 42.9133 358.828 41.1751 358.828 38.9379C358.828 36.6662 358.69 34.928 358.415 33.7234C358.002 32.1745 357.193 30.9526 355.989 30.0577C354.818 29.1284 353.39 28.6637 351.703 28.6637C350.017 28.6637 348.588 29.1284 347.418 30.0577C346.248 30.9526 345.456 32.1745 345.043 33.7234C344.768 34.928 344.63 36.6662 344.63 38.9379C344.63 41.2096 344.768 42.9477 345.043 44.1524C345.422 45.7013 346.196 46.9404 347.366 47.8697C348.571 48.7646 350.034 49.212 351.755 49.212ZM395.842 25.5144C398.423 25.5144 400.454 26.2888 401.934 27.8377C403.449 29.3865 404.206 31.5033 404.206 34.188V51.4837C404.206 51.8279 404.034 52 403.69 52H401.108C400.764 52 400.592 51.8279 400.592 51.4837V34.9108C400.592 33.0178 400.041 31.5205 398.94 30.4191C397.873 29.2833 396.462 28.7153 394.706 28.7153C392.882 28.7153 391.402 29.2661 390.266 30.3675C389.165 31.4689 388.614 32.9489 388.614 34.8076V51.4837C388.614 51.8279 388.442 52 388.098 52H385.465C385.12 52 384.948 51.8279 384.948 51.4837V34.9108C384.948 33.0178 384.415 31.5205 383.348 30.4191C382.281 29.2833 380.852 28.7153 379.063 28.7153C377.238 28.7153 375.776 29.2661 374.674 30.3675C373.607 31.4689 373.074 32.9489 373.074 34.8076V51.4837C373.074 51.8279 372.902 52 372.557 52H369.924C369.58 52 369.408 51.8279 369.408 51.4837V26.392C369.408 26.0479 369.58 25.8758 369.924 25.8758H372.557C372.902 25.8758 373.074 26.0479 373.074 26.392V28.4572C373.074 28.526 373.091 28.5777 373.125 28.6121C373.194 28.6121 373.263 28.5777 373.332 28.5088C374.089 27.5107 375.053 26.7707 376.223 26.2888C377.428 25.7725 378.753 25.5144 380.198 25.5144C381.988 25.5144 383.52 25.8758 384.793 26.5986C386.067 27.3214 387.031 28.3712 387.685 29.7479C387.753 29.92 387.84 29.92 387.943 29.7479C388.7 28.3367 389.767 27.2869 391.144 26.5986C392.521 25.8758 394.087 25.5144 395.842 25.5144ZM438.031 25.5144C440.612 25.5144 442.643 26.2888 444.123 27.8377C445.637 29.3865 446.394 31.5033 446.394 34.188V51.4837C446.394 51.8279 446.222 52 445.878 52H443.297C442.952 52 442.78 51.8279 442.78 51.4837V34.9108C442.78 33.0178 442.23 31.5205 441.128 30.4191C440.061 29.2833 438.65 28.7153 436.895 28.7153C435.07 28.7153 433.59 29.2661 432.455 30.3675C431.353 31.4689 430.802 32.9489 430.802 34.8076V51.4837C430.802 51.8279 430.63 52 430.286 52H427.653C427.309 52 427.137 51.8279 427.137 51.4837V34.9108C427.137 33.0178 426.603 31.5205 425.536 30.4191C424.469 29.2833 423.041 28.7153 421.251 28.7153C419.427 28.7153 417.964 29.2661 416.863 30.3675C415.796 31.4689 415.262 32.9489 415.262 34.8076V51.4837C415.262 51.8279 415.09 52 414.746 52H412.113C411.769 52 411.597 51.8279 411.597 51.4837V26.392C411.597 26.0479 411.769 25.8758 412.113 25.8758H414.746C415.09 25.8758 415.262 26.0479 415.262 26.392V28.4572C415.262 28.526 415.279 28.5777 415.314 28.6121C415.383 28.6121 415.451 28.5777 415.52 28.5088C416.278 27.5107 417.241 26.7707 418.412 26.2888C419.616 25.7725 420.941 25.5144 422.387 25.5144C424.177 25.5144 425.708 25.8758 426.982 26.5986C428.255 27.3214 429.219 28.3712 429.873 29.7479C429.942 29.92 430.028 29.92 430.131 29.7479C430.889 28.3367 431.956 27.2869 433.332 26.5986C434.709 25.8758 436.275 25.5144 438.031 25.5144ZM473.464 34.5494C473.602 35.5132 473.671 36.7178 473.671 38.1634V39.8156C473.671 40.1598 473.499 40.3319 473.154 40.3319H456.478C456.341 40.3319 456.272 40.4007 456.272 40.5384C456.341 42.4314 456.444 43.6533 456.581 44.204C456.96 45.7529 457.769 46.9748 459.008 47.8697C460.247 48.7646 461.83 49.212 463.758 49.212C465.203 49.212 466.477 48.8851 467.578 48.2311C468.68 47.5771 469.54 46.6478 470.16 45.4431C470.366 45.1334 470.607 45.0645 470.883 45.2366L472.896 46.4241C473.172 46.5962 473.24 46.8371 473.103 47.1469C472.242 48.799 470.951 50.1069 469.231 51.0707C467.51 52 465.53 52.4647 463.293 52.4647C460.849 52.4302 458.801 51.8451 457.149 50.7093C455.497 49.5734 454.31 47.9902 453.587 45.9594C452.967 44.3073 452.658 41.9324 452.658 38.8346C452.658 37.389 452.675 36.2188 452.709 35.3239C452.778 34.3945 452.916 33.5685 453.122 32.8457C453.707 30.6084 454.878 28.8186 456.633 27.4763C458.423 26.1339 460.574 25.4627 463.087 25.4627C466.219 25.4627 468.628 26.2544 470.315 27.8377C472.001 29.4209 473.051 31.6582 473.464 34.5494ZM463.087 28.6637C461.4 28.6637 459.989 29.1112 458.853 30.0061C457.752 30.8666 457.029 32.0368 456.685 33.5168C456.478 34.2396 456.341 35.4099 456.272 37.0276C456.272 37.1653 456.341 37.2341 456.478 37.2341H469.85C469.988 37.2341 470.057 37.1653 470.057 37.0276C469.988 35.4787 469.884 34.3773 469.747 33.7234C469.368 32.1745 468.594 30.9526 467.424 30.0577C466.288 29.1284 464.842 28.6637 463.087 28.6637ZM490.977 25.6176C492.113 25.6176 493.094 25.8413 493.92 26.2888C494.195 26.4265 494.298 26.6502 494.229 26.96L493.662 29.4898C493.558 29.834 493.335 29.9372 492.99 29.7996C492.405 29.5586 491.734 29.4382 490.977 29.4382L490.306 29.4898C488.516 29.5586 487.036 30.2298 485.866 31.5033C484.695 32.7424 484.11 34.3257 484.11 36.2532V51.4837C484.11 51.8279 483.938 52 483.594 52H480.961C480.617 52 480.444 51.8279 480.444 51.4837V26.392C480.444 26.0479 480.617 25.8758 480.961 25.8758H483.594C483.938 25.8758 484.11 26.0479 484.11 26.392V29.5414C484.11 29.6447 484.127 29.7135 484.162 29.7479C484.231 29.7479 484.282 29.7135 484.317 29.6447C485.039 28.3712 485.952 27.3902 487.053 26.7018C488.189 25.979 489.497 25.6176 490.977 25.6176ZM508.343 52.413C505.865 52.413 503.731 51.7763 501.942 50.5028C500.186 49.1948 498.981 47.4394 498.327 45.2366C497.88 43.7222 497.656 41.5882 497.656 38.8346C497.656 36.3564 497.88 34.2569 498.327 32.5359C498.947 30.4019 500.152 28.6981 501.942 27.4246C503.731 26.1167 505.865 25.4627 508.343 25.4627C510.856 25.4627 513.025 26.0995 514.849 27.373C516.707 28.6465 517.912 30.2298 518.463 32.1229C518.635 32.7424 518.738 33.2587 518.773 33.6717V33.775C518.773 34.0159 518.618 34.1708 518.308 34.2396L515.726 34.601H515.623C515.382 34.601 515.227 34.4462 515.159 34.1364L515.004 33.362C514.694 32.054 513.937 30.9526 512.732 30.0577C511.527 29.1284 510.064 28.6637 508.343 28.6637C506.623 28.6637 505.177 29.1284 504.007 30.0577C502.871 30.9526 502.131 32.1573 501.787 33.6717C501.477 34.9797 501.322 36.7178 501.322 38.8863C501.322 41.1579 501.477 42.9133 501.787 44.1524C502.131 45.7013 502.871 46.9404 504.007 47.8697C505.177 48.7646 506.623 49.212 508.343 49.212C510.03 49.212 511.476 48.7818 512.68 47.9213C513.919 47.0264 514.694 45.8906 515.004 44.5138V44.3073L515.055 44.1008C515.09 43.7566 515.296 43.6189 515.675 43.6877L518.205 44.1008C518.549 44.1696 518.704 44.3589 518.669 44.6687L518.463 45.7013C517.946 47.6976 516.759 49.3153 514.9 50.5544C513.042 51.7935 510.856 52.413 508.343 52.413ZM544.67 34.5494C544.807 35.5132 544.876 36.7178 544.876 38.1634V39.8156C544.876 40.1598 544.704 40.3319 544.36 40.3319H527.684C527.546 40.3319 527.477 40.4007 527.477 40.5384C527.546 42.4314 527.649 43.6533 527.787 44.204C528.166 45.7529 528.974 46.9748 530.214 47.8697C531.453 48.7646 533.036 49.212 534.963 49.212C536.409 49.212 537.683 48.8851 538.784 48.2311C539.885 47.5771 540.746 46.6478 541.365 45.4431C541.572 45.1334 541.813 45.0645 542.088 45.2366L544.102 46.4241C544.377 46.5962 544.446 46.8371 544.308 47.1469C543.448 48.799 542.157 50.1069 540.436 51.0707C538.715 52 536.736 52.4647 534.499 52.4647C532.055 52.4302 530.007 51.8451 528.355 50.7093C526.703 49.5734 525.515 47.9902 524.793 45.9594C524.173 44.3073 523.863 41.9324 523.863 38.8346C523.863 37.389 523.88 36.2188 523.915 35.3239C523.984 34.3945 524.121 33.5685 524.328 32.8457C524.913 30.6084 526.083 28.8186 527.839 27.4763C529.628 26.1339 531.78 25.4627 534.292 25.4627C537.424 25.4627 539.834 26.2544 541.52 27.8377C543.207 29.4209 544.257 31.6582 544.67 34.5494ZM534.292 28.6637C532.606 28.6637 531.195 29.1112 530.059 30.0061C528.957 30.8666 528.234 32.0368 527.89 33.5168C527.684 34.2396 527.546 35.4099 527.477 37.0276C527.477 37.1653 527.546 37.2341 527.684 37.2341H541.056C541.193 37.2341 541.262 37.1653 541.262 37.0276C541.193 35.4787 541.09 34.3773 540.952 33.7234C540.574 32.1745 539.799 30.9526 538.629 30.0577C537.493 29.1284 536.048 28.6637 534.292 28.6637ZM550.05 37.5439C549.705 37.5439 549.533 37.3718 549.533 37.0276V34.8592C549.533 34.515 549.705 34.3429 550.05 34.3429H565.332C565.676 34.3429 565.848 34.515 565.848 34.8592V37.0276C565.848 37.3718 565.676 37.5439 565.332 37.5439H550.05ZM587.251 26.392C587.251 26.0479 587.423 25.8758 587.767 25.8758H590.4C590.745 25.8758 590.917 26.0479 590.917 26.392V51.4837C590.917 51.8279 590.745 52 590.4 52H587.767C587.423 52 587.251 51.8279 587.251 51.4837V49.2637C587.251 49.1948 587.217 49.1432 587.148 49.1088C587.079 49.0744 587.027 49.0916 586.993 49.1604C585.547 51.2944 583.258 52.3614 580.126 52.3614C578.474 52.3614 576.942 52.0344 575.531 51.3805C574.154 50.6921 573.053 49.7111 572.227 48.4376C571.435 47.1641 571.04 45.6324 571.04 43.8426V26.392C571.04 26.0479 571.212 25.8758 571.556 25.8758H574.189C574.533 25.8758 574.705 26.0479 574.705 26.392V42.7584C574.705 44.7203 575.256 46.2864 576.357 47.4567C577.459 48.5925 578.956 49.1604 580.849 49.1604C582.811 49.1604 584.36 48.5753 585.496 47.405C586.666 46.2348 587.251 44.6859 587.251 42.7584V26.392ZM601.094 21.1259C600.268 21.1259 599.58 20.8505 599.029 20.2998C598.479 19.7491 598.203 19.0607 598.203 18.2347C598.203 17.3742 598.479 16.6858 599.029 16.1695C599.58 15.6188 600.268 15.3435 601.094 15.3435C601.921 15.3435 602.609 15.6188 603.16 16.1695C603.71 16.6858 603.986 17.3742 603.986 18.2347C603.986 19.0607 603.71 19.7491 603.16 20.2998C602.609 20.8505 601.921 21.1259 601.094 21.1259ZM599.649 51.9484C599.305 51.9484 599.133 51.7763 599.133 51.4321V26.3404C599.133 25.9962 599.305 25.8241 599.649 25.8241H602.282C602.626 25.8241 602.798 25.9962 602.798 26.3404V51.4321C602.798 51.7763 602.626 51.9484 602.282 51.9484H599.649Z" fill="black"/>
<path d="M87.6233 52.3614C85.3172 52.3614 83.3037 52.0344 81.5828 51.3805C79.8618 50.7265 78.5194 49.8144 77.5557 48.6441C76.6264 47.4739 76.1617 46.1487 76.1617 44.6687V44.1524C76.1617 43.9803 76.2133 43.8426 76.3166 43.7394C76.4543 43.6017 76.6092 43.5329 76.7813 43.5329H82.5121C82.6842 43.5329 82.8219 43.6017 82.9251 43.7394C83.0628 43.8426 83.1316 43.9803 83.1316 44.1524V44.204C83.1316 44.9613 83.5447 45.6152 84.3707 46.1659C85.2312 46.6822 86.2982 46.9404 87.5717 46.9404C88.742 46.9404 89.6885 46.7166 90.4113 46.2692C91.1341 45.7873 91.4955 45.2022 91.4955 44.5138C91.4955 43.8943 91.1857 43.4296 90.5662 43.1198C89.9466 42.81 88.9313 42.4831 87.5201 42.1389C85.9024 41.7258 84.6289 41.33 83.6995 40.9514C81.4967 40.1942 79.7413 39.2649 78.4334 38.1634C77.1255 37.062 76.4715 35.4787 76.4715 33.4136C76.4715 30.8666 77.4524 28.853 79.4143 27.373C81.4107 25.8585 84.0437 25.1013 87.3136 25.1013C89.5164 25.1013 91.4439 25.4627 93.096 26.1855C94.7481 26.8739 96.0216 27.8549 96.9165 29.1284C97.8459 30.4019 98.3105 31.8475 98.3105 33.4652C98.3105 33.6373 98.2417 33.7922 98.104 33.9299C98.0008 34.0331 97.8631 34.0848 97.691 34.0848H92.1667C91.9946 34.0848 91.8397 34.0331 91.702 33.9299C91.5988 33.7922 91.5471 33.6373 91.5471 33.4652C91.5471 32.708 91.1513 32.0712 90.3597 31.5549C89.6025 31.0387 88.5871 30.7805 87.3136 30.7805C86.1777 30.7805 85.2484 30.987 84.5256 31.4001C83.8028 31.8131 83.4414 32.381 83.4414 33.1038C83.4414 33.7922 83.7856 34.3085 84.474 34.6527C85.1968 34.9969 86.3842 35.3583 88.0364 35.7369C88.415 35.8401 88.8452 35.9606 89.3271 36.0983C89.809 36.2015 90.3253 36.3392 90.876 36.5113C93.3197 37.2341 95.2472 38.1634 96.6584 39.2993C98.0696 40.4351 98.7752 42.0872 98.7752 44.2557C98.7752 46.8027 97.7598 48.799 95.7291 50.2446C93.7328 51.6558 91.0309 52.3614 87.6233 52.3614ZM117.619 30.6772C117.619 30.8493 117.55 31.0042 117.412 31.1419C117.309 31.2452 117.171 31.2968 116.999 31.2968H112.043C111.871 31.2968 111.784 31.3828 111.784 31.5549V42.5003C111.784 43.6361 112.008 44.4794 112.456 45.0301C112.938 45.5808 113.695 45.8562 114.727 45.8562H116.431C116.603 45.8562 116.741 45.925 116.844 46.0627C116.982 46.1659 117.051 46.3036 117.051 46.4757V51.3805C117.051 51.7591 116.844 51.9828 116.431 52.0516C114.985 52.1205 113.953 52.1549 113.333 52.1549C110.477 52.1549 108.343 51.6902 106.931 50.7609C105.52 49.7972 104.797 48.0074 104.763 45.3915V31.5549C104.763 31.3828 104.677 31.2968 104.505 31.2968H101.562C101.39 31.2968 101.235 31.2452 101.097 31.1419C100.994 31.0042 100.942 30.8493 100.942 30.6772V26.0823C100.942 25.9102 100.994 25.7725 101.097 25.6692C101.235 25.5316 101.39 25.4627 101.562 25.4627H104.505C104.677 25.4627 104.763 25.3767 104.763 25.2046V19.0607C104.763 18.8886 104.815 18.751 104.918 18.6477C105.056 18.51 105.21 18.4412 105.382 18.4412H111.165C111.337 18.4412 111.475 18.51 111.578 18.6477C111.716 18.751 111.784 18.8886 111.784 19.0607V25.2046C111.784 25.3767 111.871 25.4627 112.043 25.4627H116.999C117.171 25.4627 117.309 25.5316 117.412 25.6692C117.55 25.7725 117.619 25.9102 117.619 26.0823V30.6772ZM132.069 25.0497C134.306 25.0497 136.302 25.4455 138.058 26.2372C139.813 26.9944 141.172 28.0442 142.136 29.3865C143.134 30.7289 143.633 32.2261 143.633 33.8782V51.3805C143.633 51.5525 143.565 51.7074 143.427 51.8451C143.324 51.9484 143.186 52 143.014 52H136.973C136.801 52 136.646 51.9484 136.509 51.8451C136.405 51.7074 136.354 51.5525 136.354 51.3805V49.6767C136.354 49.5734 136.319 49.5046 136.251 49.4702C136.182 49.4358 136.113 49.4702 136.044 49.5734C134.598 51.4665 132.275 52.413 129.074 52.413C126.389 52.413 124.221 51.7591 122.569 50.4511C120.917 49.1432 120.091 47.2157 120.091 44.6687C120.091 42.0184 121.02 39.9705 122.879 38.5248C124.737 37.0448 127.388 36.3048 130.829 36.3048H136.096C136.268 36.3048 136.354 36.2188 136.354 36.0467V34.9108C136.354 33.775 136.01 32.8973 135.321 32.2777C134.633 31.6238 133.6 31.2968 132.223 31.2968C131.156 31.2968 130.262 31.4861 129.539 31.8647C128.85 32.2433 128.403 32.7768 128.196 33.4652C128.093 33.8438 127.869 34.0159 127.525 33.9815L121.278 33.1554C120.865 33.0866 120.676 32.9317 120.71 32.6908C120.848 31.2452 121.416 29.9372 122.414 28.767C123.447 27.5967 124.789 26.6846 126.441 26.0306C128.128 25.3767 130.003 25.0497 132.069 25.0497ZM131.036 46.992C132.516 46.992 133.772 46.5962 134.805 45.8045C135.838 45.0129 136.354 43.9975 136.354 42.7584V40.8998C136.354 40.7277 136.268 40.6416 136.096 40.6416H132.378C130.829 40.6416 129.608 40.9342 128.713 41.5193C127.852 42.1045 127.422 42.9305 127.422 43.9975C127.422 44.9268 127.749 45.6669 128.403 46.2176C129.057 46.7338 129.935 46.992 131.036 46.992ZM159.913 52.413C157.16 52.413 154.767 51.7246 152.737 50.3479C150.74 48.9711 149.312 47.078 148.452 44.6687C147.866 42.9477 147.574 40.917 147.574 38.5765C147.574 36.2704 147.866 34.2741 148.452 32.5875C149.278 30.247 150.706 28.4056 152.737 27.0632C154.767 25.7209 157.16 25.0497 159.913 25.0497C162.667 25.0497 165.076 25.7381 167.141 27.1149C169.241 28.4916 170.635 30.2298 171.323 32.3294C171.598 33.1554 171.736 33.775 171.736 34.188V34.2913C171.736 34.601 171.564 34.7904 171.22 34.8592L165.283 35.7369H165.179C164.87 35.7369 164.663 35.5648 164.56 35.2206L164.405 34.3945C164.164 33.4996 163.63 32.7596 162.804 32.1745C161.978 31.5894 160.997 31.2968 159.861 31.2968C158.76 31.2968 157.831 31.5722 157.074 32.1229C156.316 32.6736 155.783 33.4308 155.473 34.3945C155.094 35.4271 154.905 36.8383 154.905 38.6281C154.905 40.4179 155.077 41.8291 155.421 42.8617C155.731 43.8943 156.265 44.7031 157.022 45.2882C157.814 45.8734 158.76 46.1659 159.861 46.1659C160.928 46.1659 161.858 45.8906 162.649 45.3399C163.476 44.7547 164.043 43.9631 164.353 42.9649C164.388 42.8961 164.405 42.7928 164.405 42.6552C164.439 42.6207 164.456 42.5691 164.456 42.5003C164.491 42.0872 164.732 41.9151 165.179 41.984L171.117 42.9133C171.461 42.9821 171.633 43.1715 171.633 43.4812C171.633 43.7566 171.53 44.2729 171.323 45.0301C170.6 47.3362 169.189 49.1432 167.09 50.4511C165.024 51.7591 162.632 52.413 159.913 52.413ZM176.079 52C175.907 52 175.752 51.9484 175.614 51.8451C175.511 51.7074 175.459 51.5525 175.459 51.3805V16.4793C175.459 16.3072 175.511 16.1695 175.614 16.0663C175.752 15.9286 175.907 15.8597 176.079 15.8597H182.119C182.291 15.8597 182.429 15.9286 182.532 16.0663C182.67 16.1695 182.739 16.3072 182.739 16.4793V33.8782C182.739 33.9815 182.773 34.0503 182.842 34.0848C182.911 34.0848 182.98 34.0503 183.049 33.9815L190.07 25.8241C190.311 25.5832 190.569 25.4627 190.845 25.4627H197.711C198.055 25.4627 198.227 25.5832 198.227 25.8241C198.227 25.9274 198.176 26.0651 198.073 26.2372L191.516 34.5494C191.447 34.6871 191.43 34.8076 191.464 34.9108L199.157 51.2772C199.226 51.4149 199.26 51.5181 199.26 51.587C199.26 51.8623 199.071 52 198.692 52H192.342C191.998 52 191.757 51.8451 191.619 51.5353L186.508 39.4542C186.473 39.3853 186.404 39.3509 186.301 39.3509C186.232 39.3165 186.181 39.3337 186.146 39.4025L182.842 43.5329C182.773 43.6705 182.739 43.7738 182.739 43.8426V51.3805C182.739 51.5525 182.67 51.7074 182.532 51.8451C182.429 51.9484 182.291 52 182.119 52H176.079ZM202.058 52C201.714 52 201.542 51.8279 201.542 51.4837V49.0055C201.542 48.7646 201.611 48.5581 201.749 48.386L216.411 29.4898C216.48 29.4209 216.497 29.3693 216.463 29.3349C216.429 29.2661 216.377 29.2316 216.308 29.2316H202.265C201.921 29.2316 201.749 29.0595 201.749 28.7153V26.392C201.749 26.0479 201.921 25.8758 202.265 25.8758H220.387C220.731 25.8758 220.903 26.0479 220.903 26.392V28.8702C220.903 29.1112 220.834 29.3177 220.697 29.4898L205.879 48.386C205.81 48.4548 205.793 48.5237 205.827 48.5925C205.862 48.6269 205.913 48.6441 205.982 48.6441H220.387C220.731 48.6441 220.903 48.8162 220.903 49.1604V51.4837C220.903 51.8279 220.731 52 220.387 52H202.058ZM246.424 34.5494C246.562 35.5132 246.63 36.7178 246.63 38.1634V39.8156C246.63 40.1598 246.458 40.3319 246.114 40.3319H229.438C229.3 40.3319 229.231 40.4007 229.231 40.5384C229.3 42.4314 229.404 43.6533 229.541 44.204C229.92 45.7529 230.729 46.9748 231.968 47.8697C233.207 48.7646 234.79 49.212 236.718 49.212C238.163 49.212 239.437 48.8851 240.538 48.2311C241.64 47.5771 242.5 46.6478 243.12 45.4431C243.326 45.1334 243.567 45.0645 243.842 45.2366L245.856 46.4241C246.131 46.5962 246.2 46.8371 246.062 47.1469C245.202 48.799 243.911 50.1069 242.19 51.0707C240.469 52 238.49 52.4647 236.253 52.4647C233.809 52.4302 231.761 51.8451 230.109 50.7093C228.457 49.5734 227.27 47.9902 226.547 45.9594C225.927 44.3073 225.617 41.9324 225.617 38.8346C225.617 37.389 225.635 36.2188 225.669 35.3239C225.738 34.3945 225.876 33.5685 226.082 32.8457C226.667 30.6084 227.837 28.8186 229.593 27.4763C231.383 26.1339 233.534 25.4627 236.046 25.4627C239.179 25.4627 241.588 26.2544 243.274 27.8377C244.961 29.4209 246.011 31.6582 246.424 34.5494ZM236.046 28.6637C234.36 28.6637 232.949 29.1112 231.813 30.0061C230.711 30.8666 229.989 32.0368 229.644 33.5168C229.438 34.2396 229.3 35.4099 229.231 37.0276C229.231 37.1653 229.3 37.2341 229.438 37.2341H242.81C242.948 37.2341 243.016 37.1653 243.016 37.0276C242.948 35.4787 242.844 34.3773 242.707 33.7234C242.328 32.1745 241.554 30.9526 240.383 30.0577C239.247 29.1284 237.802 28.6637 236.046 28.6637ZM263.937 25.6176C265.072 25.6176 266.053 25.8413 266.879 26.2888C267.155 26.4265 267.258 26.6502 267.189 26.96L266.621 29.4898C266.518 29.834 266.294 29.9372 265.95 29.7996C265.365 29.5586 264.694 29.4382 263.937 29.4382L263.265 29.4898C261.476 29.5586 259.996 30.2298 258.825 31.5033C257.655 32.7424 257.07 34.3257 257.07 36.2532V51.4837C257.07 51.8279 256.898 52 256.554 52H253.921C253.576 52 253.404 51.8279 253.404 51.4837V26.392C253.404 26.0479 253.576 25.8758 253.921 25.8758H256.554C256.898 25.8758 257.07 26.0479 257.07 26.392V29.5414C257.07 29.6447 257.087 29.7135 257.122 29.7479C257.19 29.7479 257.242 29.7135 257.276 29.6447C257.999 28.3712 258.911 27.3902 260.013 26.7018C261.149 25.979 262.457 25.6176 263.937 25.6176ZM281.406 52.413C278.928 52.413 276.794 51.7763 275.004 50.5028C273.215 49.2292 271.976 47.4739 271.287 45.2366C270.805 43.6533 270.564 41.5365 270.564 38.8863C270.564 36.236 270.805 34.1364 271.287 32.5875C271.941 30.3847 273.163 28.6465 274.953 27.373C276.743 26.0995 278.911 25.4627 281.458 25.4627C283.902 25.4627 286.001 26.0995 287.757 27.373C289.547 28.6465 290.769 30.3675 291.422 32.5359C291.904 34.0159 292.145 36.1327 292.145 38.8863C292.145 41.6742 291.904 43.791 291.422 45.2366C290.769 47.4739 289.547 49.2292 287.757 50.5028C286.001 51.7763 283.885 52.413 281.406 52.413ZM281.406 49.212C283.059 49.212 284.47 48.7646 285.64 47.8697C286.81 46.9404 287.602 45.7013 288.015 44.1524C288.325 42.9133 288.48 41.1751 288.48 38.9379C288.48 36.6662 288.342 34.928 288.067 33.7234C287.654 32.1745 286.845 30.9526 285.64 30.0577C284.47 29.1284 283.041 28.6637 281.355 28.6637C279.668 28.6637 278.24 29.1284 277.07 30.0577C275.899 30.9526 275.108 32.1745 274.695 33.7234C274.419 34.928 274.282 36.6662 274.282 38.9379C274.282 41.2096 274.419 42.9477 274.695 44.1524C275.073 45.7013 275.848 46.9404 277.018 47.8697C278.223 48.7646 279.686 49.212 281.406 49.212ZM296.895 52C296.516 52 296.378 51.8107 296.482 51.4321L307.892 16.2728C307.995 15.9974 308.202 15.8597 308.511 15.8597H311.093C311.471 15.8597 311.609 16.0491 311.506 16.4277L300.096 51.587C299.993 51.8623 299.786 52 299.476 52H296.895ZM325.496 52.413C323.018 52.413 320.884 51.7763 319.094 50.5028C317.339 49.1948 316.134 47.4394 315.48 45.2366C315.033 43.7222 314.809 41.5882 314.809 38.8346C314.809 36.3564 315.033 34.2569 315.48 32.5359C316.1 30.4019 317.305 28.6981 319.094 27.4246C320.884 26.1167 323.018 25.4627 325.496 25.4627C328.009 25.4627 330.177 26.0995 332.002 27.373C333.86 28.6465 335.065 30.2298 335.616 32.1229C335.788 32.7424 335.891 33.2587 335.925 33.6717V33.775C335.925 34.0159 335.771 34.1708 335.461 34.2396L332.879 34.601H332.776C332.535 34.601 332.38 34.4462 332.311 34.1364L332.157 33.362C331.847 32.054 331.09 30.9526 329.885 30.0577C328.68 29.1284 327.217 28.6637 325.496 28.6637C323.775 28.6637 322.33 29.1284 321.16 30.0577C320.024 30.9526 319.284 32.1573 318.94 33.6717C318.63 34.9797 318.475 36.7178 318.475 38.8863C318.475 41.1579 318.63 42.9133 318.94 44.1524C319.284 45.7013 320.024 46.9404 321.16 47.8697C322.33 48.7646 323.775 49.212 325.496 49.212C327.183 49.212 328.629 48.7818 329.833 47.9213C331.072 47.0264 331.847 45.8906 332.157 44.5138V44.3073L332.208 44.1008C332.243 43.7566 332.449 43.6189 332.828 43.6877L335.358 44.1008C335.702 44.1696 335.857 44.3589 335.822 44.6687L335.616 45.7013C335.099 47.6976 333.912 49.3153 332.053 50.5544C330.195 51.7935 328.009 52.413 325.496 52.413ZM351.755 52.413C349.277 52.413 347.143 51.7763 345.353 50.5028C343.563 49.2292 342.324 47.4739 341.636 45.2366C341.154 43.6533 340.913 41.5365 340.913 38.8863C340.913 36.236 341.154 34.1364 341.636 32.5875C342.29 30.3847 343.512 28.6465 345.301 27.373C347.091 26.0995 349.26 25.4627 351.807 25.4627C354.25 25.4627 356.35 26.0995 358.105 27.373C359.895 28.6465 361.117 30.3675 361.771 32.5359C362.253 34.0159 362.494 36.1327 362.494 38.8863C362.494 41.6742 362.253 43.791 361.771 45.2366C361.117 47.4739 359.895 49.2292 358.105 50.5028C356.35 51.7763 354.233 52.413 351.755 52.413ZM351.755 49.212C353.407 49.212 354.818 48.7646 355.989 47.8697C357.159 46.9404 357.95 45.7013 358.363 44.1524C358.673 42.9133 358.828 41.1751 358.828 38.9379C358.828 36.6662 358.69 34.928 358.415 33.7234C358.002 32.1745 357.193 30.9526 355.989 30.0577C354.818 29.1284 353.39 28.6637 351.703 28.6637C350.017 28.6637 348.588 29.1284 347.418 30.0577C346.248 30.9526 345.456 32.1745 345.043 33.7234C344.768 34.928 344.63 36.6662 344.63 38.9379C344.63 41.2096 344.768 42.9477 345.043 44.1524C345.422 45.7013 346.196 46.9404 347.366 47.8697C348.571 48.7646 350.034 49.212 351.755 49.212ZM395.842 25.5144C398.423 25.5144 400.454 26.2888 401.934 27.8377C403.449 29.3865 404.206 31.5033 404.206 34.188V51.4837C404.206 51.8279 404.034 52 403.69 52H401.108C400.764 52 400.592 51.8279 400.592 51.4837V34.9108C400.592 33.0178 400.041 31.5205 398.94 30.4191C397.873 29.2833 396.462 28.7153 394.706 28.7153C392.882 28.7153 391.402 29.2661 390.266 30.3675C389.165 31.4689 388.614 32.9489 388.614 34.8076V51.4837C388.614 51.8279 388.442 52 388.098 52H385.465C385.12 52 384.948 51.8279 384.948 51.4837V34.9108C384.948 33.0178 384.415 31.5205 383.348 30.4191C382.281 29.2833 380.852 28.7153 379.063 28.7153C377.238 28.7153 375.776 29.2661 374.674 30.3675C373.607 31.4689 373.074 32.9489 373.074 34.8076V51.4837C373.074 51.8279 372.902 52 372.557 52H369.924C369.58 52 369.408 51.8279 369.408 51.4837V26.392C369.408 26.0479 369.58 25.8758 369.924 25.8758H372.557C372.902 25.8758 373.074 26.0479 373.074 26.392V28.4572C373.074 28.526 373.091 28.5777 373.125 28.6121C373.194 28.6121 373.263 28.5777 373.332 28.5088C374.089 27.5107 375.053 26.7707 376.223 26.2888C377.428 25.7725 378.753 25.5144 380.198 25.5144C381.988 25.5144 383.52 25.8758 384.793 26.5986C386.067 27.3214 387.031 28.3712 387.685 29.7479C387.753 29.92 387.84 29.92 387.943 29.7479C388.7 28.3367 389.767 27.2869 391.144 26.5986C392.521 25.8758 394.087 25.5144 395.842 25.5144ZM438.031 25.5144C440.612 25.5144 442.643 26.2888 444.123 27.8377C445.637 29.3865 446.394 31.5033 446.394 34.188V51.4837C446.394 51.8279 446.222 52 445.878 52H443.297C442.952 52 442.78 51.8279 442.78 51.4837V34.9108C442.78 33.0178 442.23 31.5205 441.128 30.4191C440.061 29.2833 438.65 28.7153 436.895 28.7153C435.07 28.7153 433.59 29.2661 432.455 30.3675C431.353 31.4689 430.802 32.9489 430.802 34.8076V51.4837C430.802 51.8279 430.63 52 430.286 52H427.653C427.309 52 427.137 51.8279 427.137 51.4837V34.9108C427.137 33.0178 426.603 31.5205 425.536 30.4191C424.469 29.2833 423.041 28.7153 421.251 28.7153C419.427 28.7153 417.964 29.2661 416.863 30.3675C415.796 31.4689 415.262 32.9489 415.262 34.8076V51.4837C415.262 51.8279 415.09 52 414.746 52H412.113C411.769 52 411.597 51.8279 411.597 51.4837V26.392C411.597 26.0479 411.769 25.8758 412.113 25.8758H414.746C415.09 25.8758 415.262 26.0479 415.262 26.392V28.4572C415.262 28.526 415.279 28.5777 415.314 28.6121C415.383 28.6121 415.451 28.5777 415.52 28.5088C416.278 27.5107 417.241 26.7707 418.412 26.2888C419.616 25.7725 420.941 25.5144 422.387 25.5144C424.177 25.5144 425.708 25.8758 426.982 26.5986C428.255 27.3214 429.219 28.3712 429.873 29.7479C429.942 29.92 430.028 29.92 430.131 29.7479C430.889 28.3367 431.956 27.2869 433.332 26.5986C434.709 25.8758 436.275 25.5144 438.031 25.5144ZM473.464 34.5494C473.602 35.5132 473.671 36.7178 473.671 38.1634V39.8156C473.671 40.1598 473.499 40.3319 473.154 40.3319H456.478C456.341 40.3319 456.272 40.4007 456.272 40.5384C456.341 42.4314 456.444 43.6533 456.581 44.204C456.96 45.7529 457.769 46.9748 459.008 47.8697C460.247 48.7646 461.83 49.212 463.758 49.212C465.203 49.212 466.477 48.8851 467.578 48.2311C468.68 47.5771 469.54 46.6478 470.16 45.4431C470.366 45.1334 470.607 45.0645 470.883 45.2366L472.896 46.4241C473.172 46.5962 473.24 46.8371 473.103 47.1469C472.242 48.799 470.951 50.1069 469.231 51.0707C467.51 52 465.53 52.4647 463.293 52.4647C460.849 52.4302 458.801 51.8451 457.149 50.7093C455.497 49.5734 454.31 47.9902 453.587 45.9594C452.967 44.3073 452.658 41.9324 452.658 38.8346C452.658 37.389 452.675 36.2188 452.709 35.3239C452.778 34.3945 452.916 33.5685 453.122 32.8457C453.707 30.6084 454.878 28.8186 456.633 27.4763C458.423 26.1339 460.574 25.4627 463.087 25.4627C466.219 25.4627 468.628 26.2544 470.315 27.8377C472.001 29.4209 473.051 31.6582 473.464 34.5494ZM463.087 28.6637C461.4 28.6637 459.989 29.1112 458.853 30.0061C457.752 30.8666 457.029 32.0368 456.685 33.5168C456.478 34.2396 456.341 35.4099 456.272 37.0276C456.272 37.1653 456.341 37.2341 456.478 37.2341H469.85C469.988 37.2341 470.057 37.1653 470.057 37.0276C469.988 35.4787 469.884 34.3773 469.747 33.7234C469.368 32.1745 468.594 30.9526 467.424 30.0577C466.288 29.1284 464.842 28.6637 463.087 28.6637ZM490.977 25.6176C492.113 25.6176 493.094 25.8413 493.92 26.2888C494.195 26.4265 494.298 26.6502 494.229 26.96L493.662 29.4898C493.558 29.834 493.335 29.9372 492.99 29.7996C492.405 29.5586 491.734 29.4382 490.977 29.4382L490.306 29.4898C488.516 29.5586 487.036 30.2298 485.866 31.5033C484.695 32.7424 484.11 34.3257 484.11 36.2532V51.4837C484.11 51.8279 483.938 52 483.594 52H480.961C480.617 52 480.444 51.8279 480.444 51.4837V26.392C480.444 26.0479 480.617 25.8758 480.961 25.8758H483.594C483.938 25.8758 484.11 26.0479 484.11 26.392V29.5414C484.11 29.6447 484.127 29.7135 484.162 29.7479C484.231 29.7479 484.282 29.7135 484.317 29.6447C485.039 28.3712 485.952 27.3902 487.053 26.7018C488.189 25.979 489.497 25.6176 490.977 25.6176ZM508.343 52.413C505.865 52.413 503.731 51.7763 501.942 50.5028C500.186 49.1948 498.981 47.4394 498.327 45.2366C497.88 43.7222 497.656 41.5882 497.656 38.8346C497.656 36.3564 497.88 34.2569 498.327 32.5359C498.947 30.4019 500.152 28.6981 501.942 27.4246C503.731 26.1167 505.865 25.4627 508.343 25.4627C510.856 25.4627 513.025 26.0995 514.849 27.373C516.707 28.6465 517.912 30.2298 518.463 32.1229C518.635 32.7424 518.738 33.2587 518.773 33.6717V33.775C518.773 34.0159 518.618 34.1708 518.308 34.2396L515.726 34.601H515.623C515.382 34.601 515.227 34.4462 515.159 34.1364L515.004 33.362C514.694 32.054 513.937 30.9526 512.732 30.0577C511.527 29.1284 510.064 28.6637 508.343 28.6637C506.623 28.6637 505.177 29.1284 504.007 30.0577C502.871 30.9526 502.131 32.1573 501.787 33.6717C501.477 34.9797 501.322 36.7178 501.322 38.8863C501.322 41.1579 501.477 42.9133 501.787 44.1524C502.131 45.7013 502.871 46.9404 504.007 47.8697C505.177 48.7646 506.623 49.212 508.343 49.212C510.03 49.212 511.476 48.7818 512.68 47.9213C513.919 47.0264 514.694 45.8906 515.004 44.5138V44.3073L515.055 44.1008C515.09 43.7566 515.296 43.6189 515.675 43.6877L518.205 44.1008C518.549 44.1696 518.704 44.3589 518.669 44.6687L518.463 45.7013C517.946 47.6976 516.759 49.3153 514.9 50.5544C513.042 51.7935 510.856 52.413 508.343 52.413ZM544.67 34.5494C544.807 35.5132 544.876 36.7178 544.876 38.1634V39.8156C544.876 40.1598 544.704 40.3319 544.36 40.3319H527.684C527.546 40.3319 527.477 40.4007 527.477 40.5384C527.546 42.4314 527.649 43.6533 527.787 44.204C528.166 45.7529 528.974 46.9748 530.214 47.8697C531.453 48.7646 533.036 49.212 534.963 49.212C536.409 49.212 537.683 48.8851 538.784 48.2311C539.885 47.5771 540.746 46.6478 541.365 45.4431C541.572 45.1334 541.813 45.0645 542.088 45.2366L544.102 46.4241C544.377 46.5962 544.446 46.8371 544.308 47.1469C543.448 48.799 542.157 50.1069 540.436 51.0707C538.715 52 536.736 52.4647 534.499 52.4647C532.055 52.4302 530.007 51.8451 528.355 50.7093C526.703 49.5734 525.515 47.9902 524.793 45.9594C524.173 44.3073 523.863 41.9324 523.863 38.8346C523.863 37.389 523.88 36.2188 523.915 35.3239C523.984 34.3945 524.121 33.5685 524.328 32.8457C524.913 30.6084 526.083 28.8186 527.839 27.4763C529.628 26.1339 531.78 25.4627 534.292 25.4627C537.424 25.4627 539.834 26.2544 541.52 27.8377C543.207 29.4209 544.257 31.6582 544.67 34.5494ZM534.292 28.6637C532.606 28.6637 531.195 29.1112 530.059 30.0061C528.957 30.8666 528.234 32.0368 527.89 33.5168C527.684 34.2396 527.546 35.4099 527.477 37.0276C527.477 37.1653 527.546 37.2341 527.684 37.2341H541.056C541.193 37.2341 541.262 37.1653 541.262 37.0276C541.193 35.4787 541.09 34.3773 540.952 33.7234C540.574 32.1745 539.799 30.9526 538.629 30.0577C537.493 29.1284 536.048 28.6637 534.292 28.6637ZM550.05 37.5439C549.705 37.5439 549.533 37.3718 549.533 37.0276V34.8592C549.533 34.515 549.705 34.3429 550.05 34.3429H565.332C565.676 34.3429 565.848 34.515 565.848 34.8592V37.0276C565.848 37.3718 565.676 37.5439 565.332 37.5439H550.05ZM587.251 26.392C587.251 26.0479 587.423 25.8758 587.767 25.8758H590.4C590.745 25.8758 590.917 26.0479 590.917 26.392V51.4837C590.917 51.8279 590.745 52 590.4 52H587.767C587.423 52 587.251 51.8279 587.251 51.4837V49.2637C587.251 49.1948 587.217 49.1432 587.148 49.1088C587.079 49.0744 587.027 49.0916 586.993 49.1604C585.547 51.2944 583.258 52.3614 580.126 52.3614C578.474 52.3614 576.942 52.0344 575.531 51.3805C574.154 50.6921 573.053 49.7111 572.227 48.4376C571.435 47.1641 571.04 45.6324 571.04 43.8426V26.392C571.04 26.0479 571.212 25.8758 571.556 25.8758H574.189C574.533 25.8758 574.705 26.0479 574.705 26.392V42.7584C574.705 44.7203 575.256 46.2864 576.357 47.4567C577.459 48.5925 578.956 49.1604 580.849 49.1604C582.811 49.1604 584.36 48.5753 585.496 47.405C586.666 46.2348 587.251 44.6859 587.251 42.7584V26.392ZM601.094 21.1259C600.268 21.1259 599.58 20.8505 599.029 20.2998C598.479 19.7491 598.203 19.0607 598.203 18.2347C598.203 17.3742 598.479 16.6858 599.029 16.1695C599.58 15.6188 600.268 15.3435 601.094 15.3435C601.921 15.3435 602.609 15.6188 603.16 16.1695C603.71 16.6858 603.986 17.3742 603.986 18.2347C603.986 19.0607 603.71 19.7491 603.16 20.2998C602.609 20.8505 601.921 21.1259 601.094 21.1259ZM599.649 51.9484C599.305 51.9484 599.133 51.7763 599.133 51.4321V26.3404C599.133 25.9962 599.305 25.8241 599.649 25.8241H602.282C602.626 25.8241 602.798 25.9962 602.798 26.3404V51.4321C602.798 51.7763 602.626 51.9484 602.282 51.9484H599.649Z" fill="#F2F2F2"/>
<g clip-path="url(#clip0_1147_195)">
<path d="M31.4932 57.71C38.5114 59.5513 46.3299 57.6936 51.8711 52.1524C57.4123 46.6111 59.27 38.7927 57.4287 31.7744L31.4932 57.71Z" fill="#00FF9D"/>
<path d="M54.3903 25.5502C53.6609 24.4793 52.8213 23.461 51.8716 22.5113C43.6865 14.3262 30.416 14.3262 22.231 22.5113C14.0459 30.6963 14.0459 43.9668 22.231 52.1519C23.1807 53.1016 24.199 53.9412 25.2699 54.6706L54.3903 25.5502Z" fill="#8940FF"/>
</g>
<defs>
<clipPath id="clip0_1147_195">
<rect width="52.3977" height="52.3977" fill="white" transform="translate(37.0508 74.1016) rotate(-135)"/>
</clipPath>
</defs>
</svg>
